<svg width="16.000000" height="16.000000" viewBox="0 0 16 16" fill="none" xmlns="http://www.w3.org/2000/svg" xmlns:xlink="http://www.w3.org/1999/xlink">
	<desc>
			Created with Pixso.
	</desc>
	<defs/>
	<path id="Shape" d="M6 0C2.68628 0 0 2.68628 0 6C0 9.31372 2.68628 12 6 12C7.29578 12 8.49573 11.5892 9.47644 10.8907L14.2928 15.7072C14.6833 16.0977 15.3167 16.0977 15.7072 15.7072C16.0977 15.3167 16.0977 14.6833 15.7072 14.2928L10.8907 9.47644C11.5892 8.49573 12 7.29578 12 6C12 2.68628 9.31372 0 6 0ZM2 6C2 3.79089 3.79089 2 6 2C8.20911 2 10 3.79089 10 6C10 8.20911 8.20911 10 6 10C3.79089 10 2 8.20911 2 6Z" clip-rule="evenodd" fill="#67748E" fill-opacity="1.000000" fill-rule="evenodd"/>
</svg>
