<svg width="14.000000" height="14.000000" viewBox="0 0 14 14" fill="none" xmlns="http://www.w3.org/2000/svg" xmlns:xlink="http://www.w3.org/1999/xlink">
	<desc>
			Created with Pixso.
	</desc>
	<defs/>
	<path id="Shape" d="M14 7C14 10.866 10.866 14 7 14C3.13403 14 0 10.866 0 7C0 3.13403 3.13403 0 7 0C10.866 0 14 3.13403 14 7ZM8.75 4.375C8.75 5.34155 7.96655 6.125 7 6.125C6.03351 6.125 5.25 5.34155 5.25 4.375C5.25 3.40845 6.03351 2.625 7 2.625C7.96655 2.625 8.75 3.40845 8.75 4.375ZM3.02203 10.4263C3.71344 8.92065 5.23462 7.875 6.99994 7.875C8.76532 7.875 10.2865 8.92065 10.9779 10.4263C10.0151 11.5431 8.59015 12.25 7 12.25C5.40979 12.25 3.9848 11.543 3.02203 10.4263Z" clip-rule="evenodd" fill="#67748E" fill-opacity="1.000000" fill-rule="evenodd"/>
</svg>
